<?xml version="1.0" standalone="no"?>
<!DOCTYPE svg PUBLIC "-//W3C//DTD SVG 1.1//EN" "http://www.w3.org/Graphics/SVG/1.1/DTD/svg11.dtd" >
<!--
2013-9-30: Created.
-->
<svg>
<metadata>
Created by iconfont
</metadata>
<defs>

<font id="iconfont" horiz-adv-x="1024" >
  <font-face
    font-family="iconfont"
    font-weight="500"
    font-stretch="normal"
    units-per-em="1024"
    ascent="896"
    descent="-128"
  />
    <missing-glyph />

    <glyph glyph-name="user" unicode="&#58976;" d="M512.06191 831.687252c-145.474232 0-263.405155-117.928876-263.405155-263.405155 0-103.547331 59.760059-193.123462 146.664338-236.163721-162.797783-48.177256-281.184077-194.46297-281.184077-367.464139 0-9.518794-0.488117-5.866614 0.217964-15.211447 0 0 3.52836-12.17632 23.284309-13.08604 19.754926-0.910743 24.89397 12.779048 24.89397 12.779048-0.801249 9.331529-0.37453 5.987365-0.37453 15.518438 0 186.621375 156.656923 340.224752 349.903182 340.224752 1.728364 0 3.450589-0.038886 5.175883-0.064468 4.824889 0.045025 12.848633 0.358157 23.208585 1.590218C672.57158 320.56320200000005 775.468089 432.400337 775.468089 568.282097 775.468089 713.758376 657.537166 831.687252 512.06191 831.687252zM512.06191 348.93743600000005c-121.140011 0-219.346707 98.203626-219.346707 219.34466 0 121.143081 98.206696 219.348754 219.346707 219.348754 121.142058 0 219.346707-98.205673 219.346707-219.348754C731.408617 447.141062 633.203968 348.93743600000005 512.06191 348.93743600000005zM909.989875-35.34576400000003c0 111.64373-49.317219 212.148771-128.038118 282.356786-11.407817 4.938476-32.31294 0.025583-34.359552-20.303418-0.627287-4.913916 1.197268-11.979846 3.15997-13.766538 68.424392-62.280462 111.214964-150.766772 111.214964-248.28683 0-9.531074 0.228197-4.819772-0.573051-14.151301 0 0 2.692319-14.146185 25.644053-14.146185 19.877723 0 22.695908 14.18814 22.695908 14.18814C910.165884-40.67104900000004 909.989875-44.86455799999999 909.989875-35.34576400000003z"  horiz-adv-x="1024" />


    <glyph glyph-name="hidepwd" unicode="&#58900;" d="M1023.967254 310.874539l-77.719082 0c0.004093-0.004093 0.00921-0.013303 0.013303-0.017396-89.638553-138.600685-253.706259-223.725434-434.264545-223.725434-180.567495 0-344.639295 85.125773-434.287057 223.725434 0.004093 0.004093 0.00921 0.013303 0.013303 0.017396L0.016373 310.874539c27.681456-50.488905 63.894216-96.191806 106.522082-135.864364L34.046421 60.868555000000015c17.030885-19.325138 35.292807-37.649482 54.818513-54.774511l76.781734 120.91386c51.323922-36.275181 109.360733-64.640206 172.10373-83.277682l-45.198411-153.451928 74.952063-18.253736 45.528939 154.550958c32.190143-5.232165 65.171302-8.253988 98.959849-8.253988 33.805944 0 66.791196 3.021823 98.986455 8.253988l45.528939-154.550958 74.91113 18.253736-45.207621 153.451928c62.760392 18.614963 120.779807 46.970778 172.125219 83.277682l76.773548-120.91386c19.521612 17.124006 37.792745 35.413558 54.810327 54.765301l-72.478731 114.15083C960.073038 214.68273299999998 996.285798 260.363122 1023.967254 310.874539z"  horiz-adv-x="1040" />


    <glyph glyph-name="pwd" unicode="&#58892;" d="M530.101657 849.454545c10.546424-1.934222 21.152323-3.594343 31.628929-5.853091 38.861576-8.378182 73.306505-25.523717 103.346424-51.73398 43.870384-38.278465 69.616485-86.281051 78.334707-143.650909 1.656242-10.895515 1.691152-21.864727 1.548929-32.841697-0.166788-12.862061-9.840485-22.812444-22.222869-22.896485-12.988768-0.087919-23.11499 9.585778-23.424 22.606869-0.535273 22.542222-3.587879 44.701737-12.156121 65.640727-27.461818 67.105616-76.397899 108.461253-148.561455 119.314101-64.530101 9.70602-119.63604-11.245899-163.986101-58.327919-29.826586-31.663838-45.99596-70.09099-48.74602-114.024727-1.993697-31.862949-0.479677-63.71297-1.060202-95.561697-0.174545-9.558626 0.006465-9.585778 9.80299-9.585778 153.160404-0.003879 306.322101-0.010343 459.482505 0.002586 64.610263 0.005172 123.79798-49.058909 135.590788-112.514586 0.515879-2.778505 1.00202-5.498828 2.521212-7.928242 0-121.535354 0-243.070707 0-364.606061-0.783515-3.114667-1.634263-6.213818-2.341495-9.345293-10.497293-46.513131-37.241535-79.912081-80.456404-100.216242-12.789657-6.009535-26.576162-8.358788-40.030384-11.973818-198.248727 0-396.498747 0-594.747475 0-2.664727 0.787394-5.29196 1.751919-8.000646 2.33503-52.862707 11.393293-88.855273 42.150788-107.47604 93.127111C95.881697 20.366221999999993 95.177051 29.91967699999998 91.798626 38.787878999999975c0 120.242424 0 240.484848 0 360.727273 0.71499 1.789414 1.767434 3.518061 2.094545 5.376 6.031515 34.191515 21.900929 62.823434 48.729212 84.963556 21.607434 17.830788 46.386424 28.443152 74.435232 31.526788 17.431273 1.916121 34.856081 0.743434 52.280889 1.12097 9.713778 0.210747 9.731879 0.051717 9.735758 9.506909 0.009051 29.734788 0.09697 59.470869-0.033616 89.205657-0.062061 14.065778 1.807515 27.907879 4.662303 41.583192 10.070626 48.230141 33.152 89.102222 69.109657 122.966626 31.26303 29.441293 67.929212 47.998707 109.498182 57.746101C472.779636 845.966222 483.717818 845.666263 493.899636 849.454545 505.966545 849.454545 518.034747 849.454545 530.101657 849.454545zM512.387232 475.605333c-92.644848 0-185.288404 0-277.933253-0.001293-4.94804 0-9.832727-0.310303-14.77301-1.039515-47.577212-7.016727-81.071838-45.467152-81.113212-93.816242-0.090505-107.941495-0.020687-215.88299-0.046545-323.824485-0.001293-6.49697 0.831354-12.900848 2.26004-19.181899 10.506343-46.17697 46.875152-75.036444 94.452364-75.03903 183.350303-0.009051 366.699313-0.003879 550.049616-0.001293 6.239677 0 12.422465 0.307717 18.658263 1.096404 46.566141 5.894465 81.51402 45.149091 81.519192 91.964768 0.012929 107.941495 0.002586 215.88299 0.009051 323.824485 0 5.598384-0.324525 11.125657-1.139071 16.707232-6.570667 44.975838-45.948121 79.286303-91.424323 79.300525C699.399111 475.624727 605.893172 475.60404 512.387232 475.605333zM488.53398 112.29866700000002c-0.003879 10.768808-0.179717 21.541495 0.076283 32.303838 0.115071 4.873051-1.515313 7.050343-6.425859 8.526869-45.521455 13.686949-74.745535 43.315717-84.349414 90.193455-7.687758 37.523394 1.794586 71.104646 27.270465 100.049455 21.992727 24.987152 49.930343 37.900929 82.726788 39.224889 29.384404 1.186909 55.849374-7.822222 78.79499-26.881293 23.873939-19.830949 37.939717-45.146505 41.402182-75.627313 3.781818-33.283879-4.619636-63.634101-26.692525-89.528889-16.108606-18.897455-36.310626-31.467313-60.225939-37.864727-5.034667-1.347232-5.697939-4.173576-5.679838-8.444121 0.089212-21.105778 0.059475-42.212848 0.029737-63.319919-0.02198-15.056162-9.602586-25.323313-23.49899-25.267717-13.25899 0.05301-23.184808 10.636929-23.418828 24.975515-0.003879 0.215919-0.002586 0.430545-0.002586 0.646465C488.537859 91.62214100000006 488.537859 101.96040400000004 488.53398 112.29866700000002zM512.590222 334.970828c-38.941737 0.188768-70.299152-30.981172-69.882828-69.465212 0.412444-38.088404 30.902303-68.645495 68.708848-68.860121 38.954667-0.221091 70.332768 30.522182 70.142707 69.293253C581.358545 306.94787899999994 546.92396 336.355556 512.590222 334.970828z"  horiz-adv-x="1024" />


    <glyph glyph-name="huodong" unicode="&#58882;" d="M982.137 388.090c0.028 0.43 0.042 0.859 0.042 1.294v186.709c0 13.443-13.65 23.198-32.461 23.198l-104.921 0.204c10.367 13.281 18.295 29.287 21.564 48.909 7.499 44.976-3.541 90.14-29.53 120.815-22.323 26.355-53.399 40.284-89.862 40.284-42.262 0-81.635-20.366-110.87-57.344-14.31-18.108-25.747-39.676-33.59-62.721-13.086 6.31-29.958 10.41-51.212 12.447-4.787 0.457-9.556 0.687-14.176 0.687-22.081 0-41.911-5.247-57.719-15.196-3.095 6.505-7.243 14.233-12.74 23.522-32.414 54.715-72.315 93.254-106.739 103.094-25.219 7.211-46.322 7.556-64.518 1.058-15.778-5.639-28.643-16.164-39.326-32.178-16.139-24.202-18.763-67.57-19.159-77.707-0.151-0.828-0.246-1.676-0.246-2.545 0-8.509 7.43-15.411 16.594-15.411 9.169 0 16.599 6.902 16.599 15.411 0 0.367-0.031 0.729-0.058 1.084 0.612 16.988 4.761 47.552 13.663 60.899 10.247 15.367 26.265 29.491 67.397 17.735 19.552-5.593 54.187-32.046 87.465-88.223 12.348-20.842 15.265-29.933 15.897-32.446-3.843-6.797-6.34-14.123-7.341-21.741-2.105-16.085-1.382-29.305 2.204-39.949l-0.083-0.084c-0.299-0.014-0.597-0.026-0.911-0.042-14.996-0.687-54.825-2.509-75.023 4.912-23.465 8.614-61.129 25.612-91.39 39.274-19.878 8.97-35.572 16.050-43.756 19.222-31.062 12.029-68.194 24.234-115.966 16.752-84.704-13.259-88.406-69.765-88.522-72.163l0.058-0.005c-0.011-0.193-0.031-0.382-0.031-0.576 0-8.393 7.346-15.196 16.416-15.196 8.698 0 15.797 6.269 16.364 14.191l0.078-0.005c0.016 0.321 3.157 32.221 60.727 41.231 39.718 6.217 70.676-3.965 98.983-14.928 7.351-2.849 23.454-10.117 42.106-18.533 30.743-13.875 69.006-31.14 93.585-40.17 16.928-6.22 40.691-7.645 60.422-7.645 4.068 0 7.958 0.063 11.587 0.153h86.631v-166.403h-395.826v166.403h193.626l-70.325 32.921h-125.401c-18.811 0-32.461-9.749-32.461-23.193v-210.754h70.969v-379.2c0-16.689 13.092-30.266 29.188-30.266h693.609c16.097 0 29.188 13.577 29.188 30.266v379.199h69.267l-0.067 22.752zM520.368-11.208h-326.5v376.546h326.499v-376.546h0.001zM746.963 776.58c26.486 0 48.87-9.908 64.749-28.643 19.81-23.385 28.099-58.574 22.171-94.125-3.969-23.817-17.536-40.414-36.252-54.223l-163.407 0.319c4.178 11.038 5.132 25.123 2.99 43.117-0.999 8.446-3.539 16.045-7.561 22.764 15.395 58.835 58.319 110.791 117.311 110.791v0zM527.987 600.521c-4-0.151-7.839-0.293-11.541-0.377l-12.326 0.026c-11.599 0.446-18.322 2.304-21.449 5.87-3.937 4.489-5.053 15.003-3.142 29.612 2.215 16.894 22.706 33.996 57.59 33.996 3.577 0 7.29-0.183 11.035-0.541 53.417-5.12 55.485-22.531 56.37-29.967 2.398-20.166-0.43-28.15-3.227-31.298-6.028-6.786-26.449-6.786-46.199-6.786l-5.373 0.004c-7.487 0-14.729-0.272-21.735-0.54v0zM880.016-11.208h-326.725v376.546h326.725v-376.546zM947.618 399.961h-394.329v166.403h394.329v-166.403zM947.618 399.961z"  horiz-adv-x="1024" />


    <glyph glyph-name="journal" unicode="&#59407;" d="M847 764.8c25.3 0 45.8-20.6 45.8-45.8v-670c0-25.3-20.6-45.8-45.8-45.8H177c-25.3 0-45.8 20.6-45.8 45.8V719c0 25.3 20.6 45.8 45.8 45.8h670m0 67.2H177c-62.4 0-113-50.6-113-113v-670c0-62.4 50.6-113 113-113h670c62.4 0 113 50.6 113 113V719c0 62.4-50.6 113-113 113zM753.8 587.7h-56.9c-18.6 0-33.6 15-33.6 33.6s15 33.6 33.6 33.6h56.9c18.6 0 33.6-15 33.6-33.6s-15-33.6-33.6-33.6zM753.8 113.10000000000002h-253c-18.6 0-33.6 15-33.6 33.6s15 33.6 33.6 33.6h253c18.6 0 33.6-15 33.6-33.6s-15-33.6-33.6-33.6zM500.8 587.7H270.2c-18.6 0-33.6 15-33.6 33.6s15 33.6 33.6 33.6h230.6c18.6 0 33.6-15 33.6-33.6s-15-33.6-33.6-33.6zM327.1 113.10000000000002h-56.9c-18.6 0-33.6 15-33.6 33.6s15 33.6 33.6 33.6h56.9c18.6 0 33.6-15 33.6-33.6s-15-33.6-33.6-33.6zM653.2 271.29999999999995h-383c-18.6 0-33.6 15-33.6 33.6s15 33.6 33.6 33.6h383c18.6 0 33.6-15 33.6-33.6s-15.1-33.6-33.6-33.6zM753.8 429.4h-383c-18.6 0-33.6 15-33.6 33.6s15 33.6 33.6 33.6h383c18.6 0 33.6-15 33.6-33.6 0-18.5-15-33.6-33.6-33.6z"  horiz-adv-x="1024" />


    <glyph glyph-name="city" unicode="&#58969;" d="M514.133333-42.66666699999996c-21.192533 0-37.085867 10.666667-47.68 26.666667L254.5408 277.33333300000004C217.4592 336 196.266667 410.666667 196.266667 480 201.565867 661.333333 339.306667 810.666667 508.834133 810.666667h5.2992c174.826667 0 317.866667-149.333333 317.866667-336 0-74.666667-21.192533-144-68.872533-202.666667l-201.314134-288c-10.594133-16-26.487467-26.666667-47.68-26.666667z m0 806.784c-146.530133 0-265.924267-130.56-271.351466-282.88 0-65.28 16.2816-125.115733 54.272-174.08l211.652266-299.2c5.4272-5.44 5.4272-5.44 10.8544 0l206.225067 293.76c37.9904 48.964267 59.6992 108.8 59.6992 174.08 0 157.764267-119.394133 288.324267-271.351467 288.324267z m0-162.901333c51.170133 0 93.034667-41.898667 93.034667-93.098667s-41.864533-93.085867-93.034667-93.085866-93.034667 41.890133-93.034666 93.090133c0 51.2 41.864533 93.090133 93.034666 93.090133z"  horiz-adv-x="1024" />


    <glyph glyph-name="course" unicode="&#58974;" d="M482.2656 199.3216l-212.765867-212.770133a27.733333 27.733333 0 1 0-39.223466 39.223466l173.546666 173.546667h78.442667z m129.591467 0l173.546666-173.546667a27.733333 27.733333 0 1 0-39.223466-39.223466l-212.765867 212.770133h78.442667zM882.005333 665.6c0.785067-4.1472 1.194667-8.426667 1.194667-12.8v-435.2c0-37.704533-30.562133-68.266667-68.266667-68.266667H209.066667c-37.704533 0-68.266667 30.562133-68.266667 68.266667V652.8c0 4.373333 0.4096 8.6528 1.194667 12.8H125.866667a27.733333 27.733333 0 1 0 0 55.466667h772.266666a27.733333 27.733333 0 1 0 0-55.466667h-16.128z m-51.272533 0H193.2672A8.878933 8.878933 0 0 1 192 661.013333v-451.626666c0-4.8896 3.925333-8.853333 8.768-8.853334h622.464c4.842667 0 8.768 3.968 8.768 8.853334V661.013333c0 1.6768-0.465067 3.246933-1.2672 4.586667zM268.8 558.933333h179.2a25.6 25.6 0 0 0 0-51.2H268.8a25.6 25.6 0 1 0 0 51.2z m0-153.6h439.466667a25.6 25.6 0 0 0 0-51.2H268.8a25.6 25.6 0 0 0 0 51.2z m268.8 153.6h17.066667a25.6 25.6 0 0 0 0-51.2h-17.066667a25.6 25.6 0 0 0 0 51.2z"  horiz-adv-x="1024" />


    <glyph glyph-name="class-hour" unicode="&#58979;" d="M738.261333 707.844267V757.704533a27.362133 27.362133 0 0 1-54.724266 0v-49.860266a4.266667 4.266667 0 0 0-4.266667-4.266667H344.7296a4.266667 4.266667 0 0 0-4.266667 4.266667V757.704533a27.362133 27.362133 0 1 1-54.724266 0v-49.860266a4.266667 4.266667 0 0 0-4.266667-4.266667H149.333333c-28.2752 0-51.2-22.920533-51.2-51.2V34.13333299999999c0-28.2752 22.9248-51.2 51.2-51.2h725.333334c28.2752 0 51.2 22.9248 51.2 51.2V652.3776c0 28.279467-22.9248 51.2-51.2 51.2h-132.138667a4.266667 4.266667 0 0 0-4.266667 4.266667zM853.333333 38.39999999999998H170.666667a17.066667 17.066667 0 0 0-17.066667 17.066667V631.4666669999999a17.066667 17.066667 0 0 0 17.066667 17.066666h115.524266v-58.5728a27.3152 27.3152 0 1 1 54.6304 0V648.533333h342.263467v-58.5728a27.3152 27.3152 0 1 1 54.6304 0V648.533333H853.333333a17.066667 17.066667 0 0 0 17.066667-17.066666v-576a17.066667 17.066667 0 0 0-17.066667-17.066667zM465.066667 516.266667m25.6 0l0 0q25.6 0 25.6-25.6l0-204.8q0-25.6-25.6-25.6l0 0q-25.6 0-25.6 25.6l0 204.8q0 25.6 25.6 25.6ZM669.866667 311.46666700000003m0-25.6l0 0q0-25.6-25.6-25.6l-153.6 0q-25.6 0-25.6 25.6l0 0q0 25.6 25.6 25.6l153.6 0q25.6 0 25.6-25.6Z"  horiz-adv-x="1024" />


    <glyph glyph-name="money" unicode="&#58983;" d="M507.733333-42.66666699999996c-237.994667 0-430.933333 192.938667-430.933333 430.933334S269.738667 819.2 507.733333 819.2s430.933333-192.938667 430.933334-430.933333c0-88.337067-26.666667-172.753067-75.682134-243.9936a25.6 25.6 0 1 0-42.180266 29.021866C863.995733 236.06613300000004 887.466667 310.37866699999995 887.466667 388.266667c0 209.719467-170.013867 379.733333-379.733334 379.733333s-379.733333-170.013867-379.733333-379.733333 170.013867-379.733333 379.733333-379.733334a25.6 25.6 0 0 0 0-51.2zM404.113067 608.695467l105.821866-198.9632 105.518934 197.277866a28.7744 28.7744 0 0 0 36.910933 12.791467 25.762133 25.762133 0 0 0 12.928-34.683733L618.2656 486.4h35.669333a22.664533 22.664533 0 1 0 0-45.333333h-61.666133l-47.2704-72.6656h98.103467a22.498133 22.498133 0 1 0 0-45.000534h-106.103467v-129.7664a27.234133 27.234133 0 1 0-54.464 0v129.7664H379.767467a22.498133 22.498133 0 1 0 0 45.000534h94.762666l-46.933333 72.6656H364.270933a22.664533 22.664533 0 1 0 0 45.333333h37.333334L357.9264 586.530133a25.565867 25.565867 0 0 0 12.373333 33.271467 25.706667 25.706667 0 0 0 33.813334-11.106133z"  horiz-adv-x="1024" />


    <glyph glyph-name="calendar" unicode="&#58984;" d="M738.261333 707.844267V757.704533a27.362133 27.362133 0 0 1-54.724266 0v-49.860266a4.266667 4.266667 0 0 0-4.266667-4.266667H344.7296a4.266667 4.266667 0 0 0-4.266667 4.266667V757.704533a27.362133 27.362133 0 1 1-54.724266 0v-49.860266a4.266667 4.266667 0 0 0-4.266667-4.266667H149.333333c-28.2752 0-51.2-22.920533-51.2-51.2V34.13333299999999c0-28.2752 22.9248-51.2 51.2-51.2h725.333334c28.2752 0 51.2 22.9248 51.2 51.2V652.3776c0 28.279467-22.9248 51.2-51.2 51.2h-132.138667a4.266667 4.266667 0 0 0-4.266667 4.266667zM853.333333 38.39999999999998H170.666667a17.066667 17.066667 0 0 0-17.066667 17.066667V631.4666669999999a17.066667 17.066667 0 0 0 17.066667 17.066666h115.524266v-58.5728a27.3152 27.3152 0 1 1 54.6304 0V648.533333h342.263467v-58.5728a27.3152 27.3152 0 1 1 54.6304 0V648.533333H853.333333a17.066667 17.066667 0 0 0 17.066667-17.066666v-576a17.066667 17.066667 0 0 0-17.066667-17.066667z"  horiz-adv-x="1024" />


    <glyph glyph-name="staff" unicode="&#58987;" d="M474.427733 334.075733a212.296533 212.296533 0 0 0-31.624533-0.247466c-160.213333-10.410667-302.165333-158.626133-302.165333-320.0128 0-16.0512-13.320533-27.153067-29.371734-27.153067-16.0512 0-25.9328 11.101867-25.9328 27.153067 0 159.304533 112.170667 301.546667 258.961067 352.384C286.0672 403.413333 247.466667 468.625067 247.466667 542.852267c0 115.6992 93.7856 209.493333 209.493333 209.493333 115.6992 0 209.493333-93.794133 209.493333-209.493333 0-73.1136-37.4528-137.480533-94.225066-174.958934 120.3712-39.936 216.465067-141.824 247.901866-265.258666l-46.007466-28.7488c-28.970667 138.2912-157.3632 253.201067-299.694934 260.189866zM460.8 385.408c87.176533 0 157.866667 70.6816 157.866667 157.866667s-70.690133 157.866667-157.866667 157.866666c-87.1936 0-157.866667-70.6816-157.866667-157.866666s70.673067-157.866667 157.866667-157.866667zM702.5664 750.933333h194.8672c20.5312 0 32.699733-11.460267 32.699733-25.6s-12.168533-25.6-32.699733-25.6h-194.8672c-20.5312 0-32.699733 11.460267-32.699733 25.6s12.168533 25.6 32.699733 25.6zM761.826133 26.466133000000013l115.498667 431.044267a25.6 25.6 0 1 0 49.454933-13.252267l-115.498666-431.044266a25.6 25.6 0 0 0-49.454934 13.252266zM780.8 657.066667h123.733333a25.6 25.6 0 0 0 0-51.2h-123.733333a25.6 25.6 0 0 0 0 51.2z"  horiz-adv-x="1024" />


    <glyph glyph-name="permieeion" unicode="&#58988;" d="M622.353067 390.263467a385.672533 385.672533 0 0 0 124.027733-61.6448 24.9088 24.9088 0 0 0 11.502933-20.996267c0-13.781333-11.204267-24.9472-25.028266-24.9472a24.977067 24.977067 0 0 0-16.3712 6.08l-0.072534-0.085333c-53.9776 41.2416-119.031467 67.5072-187.042133 70.7712a224.554667 224.554667 0 0 0-36.949333-0.520534c-170.257067-13.013333-320.341333-170.858667-320.341334-342.6304 0-17.194667-4.514133-29.090133-21.7088-29.090133-17.198933 0-22.912 11.895467-22.912 29.090133 0 173.064533 113.966933 320.938667 270.818134 370.944C331.144533 425.378133 285.866667 497.536 285.866667 580.266667c0 122.5344 99.328 221.866667 221.866666 221.866666 122.5344 0 221.866667-99.332267 221.866667-221.866666 0-80.5888-42.9696-151.146667-107.246933-190.0032z m-23.808-282.432c-14.877867 0-26.939733 12.155733-26.939734 27.1488 0 14.997333 12.061867 27.153067 26.944 27.153066 14.882133 0 26.944-12.16 26.944-27.153066s-12.061867-27.1488-26.944-27.1488zM692.053333 162.133333h185.6c19.5584 0 31.146667-12.16 31.146667-27.153066s-11.588267-27.1488-31.146667-27.1488h-185.6c-19.5584 0-31.146667 12.155733-31.146666 27.1488 0 14.997333 11.588267 27.153067 31.146666 27.153066z m-93.44-179.2c-14.848 0-26.88 12.125867-26.88 27.0848s12.032 27.089067 26.88 27.089067 26.88-12.130133 26.88-27.089067c0-14.958933-12.032-27.0848-26.88-27.0848z m93.44 54.301867h185.6c19.5584 0 31.146667-12.155733 31.146667-27.1488 0-14.997333-11.588267-27.153067-31.146667-27.153067h-185.6c-19.5584 0-31.146667 12.16-31.146666 27.153067s11.588267 27.1488 31.146666 27.1488zM507.733333 405.333333c96.6016 0 174.933333 78.3232 174.933334 174.933334s-78.331733 174.933333-174.933334 174.933333c-96.622933 0-174.933333-78.3232-174.933333-174.933333s78.3104-174.933333 174.933333-174.933334z"  horiz-adv-x="1024" />


    <glyph glyph-name="my-class" unicode="&#58997;" d="M311.466667 11.946667000000048v-0.192H213.333333c-37.704533 0-68.266667 30.5664-68.266666 68.266666V704c0 37.704533 30.562133 68.266667 68.266666 68.266667h559.944534c37.704533 0 68.266667-30.562133 68.266666-68.266667v-161.373867a25.6 25.6 0 0 0-51.1872-0.832h-0.1024V699.648a21.333333 21.333333 0 0 1-21.333333 21.333333H217.693867a21.333333 21.333333 0 0 1-21.333334-21.333333v-615.2704a21.333333 21.333333 0 0 1 21.333334-21.333333h91.4432A25.6 25.6 0 1 0 311.466667 11.946667000000048zM840.533333 38.27200000000005c0-16.6272-6.920533-25.472-23.04-25.472-16.119467 0-25.4592 10.171733-25.4592 25.472 0 102.877867-66.282667 160.6784-169.1008 160.6784-102.818133 0-169.1008-57.800533-169.1008-160.682667 0-13.841067-11.6992-25.467733-25.4592-25.467733-13.76 0-23.04 9.024-23.04 25.472 0 121.582933 96.085333 209.194667 217.6 209.194667s217.6-87.611733 217.6-209.194667zM627.165867 204.79999999999995a136.494933 136.494933 0 0 0-96.516267 233.019733 136.494933 136.494933 0 1 0 193.0368-193.041066 135.6032 135.6032 0 0 0-96.520533-39.978667z m0.034133 230.4c-51.754667 0-93.866667-42.112-93.866667-93.866667s42.112-93.866667 93.866667-93.866666 93.866667 42.112 93.866667 93.866666-42.112 93.866667-93.866667 93.866667z"  horiz-adv-x="1024" />


    <glyph glyph-name="class-card" unicode="&#59000;" d="M213.4272 654.498133a24.2176 24.2176 0 0 0-24.209067 24.221867 24.2176 24.2176 0 0 0 24.209067 24.226133h32.277333a24.2176 24.2176 0 0 0 24.209067-24.226133 24.2176 24.2176 0 0 0-24.209067-24.221867h-32.277333z m572.936533 0a24.2176 24.2176 0 0 0-24.209066 24.221867 24.2176 24.2176 0 0 0 24.209066 24.226133h24.209067c40.110933 0 72.6272-32.5376 72.6272-72.674133v-549.0688c0-40.132267-32.512-72.669867-72.6272-72.669867H213.4272C173.312 8.53333299999997 140.8 41.07093299999997 140.8 81.20320000000004V630.2719999999999c0 40.136533 32.512 72.674133 72.6272 72.674133a24.2176 24.2176 0 0 0 24.209067-24.226133 24.2176 24.2176 0 0 0-24.209067-24.221867 24.2176 24.2176 0 0 1-24.209067-24.226133v-549.0688a24.2176 24.2176 0 0 1 24.209067-24.221867h597.1456a24.2176 24.2176 0 0 1 24.209067 24.221867V630.2719999999999a24.2176 24.2176 0 0 1-24.209067 24.226133h-24.209067zM326.4 759.466667a24.209067 24.209067 0 0 0 24.209067-24.209067v-100.962133a24.209067 24.209067 0 1 0-48.418134 0V735.2576A24.209067 24.209067 0 0 0 326.4 759.466667z m371.2 0a24.209067 24.209067 0 0 0 24.209067-24.209067v-100.962133a24.209067 24.209067 0 1 0-48.418134 0V735.2576A24.209067 24.209067 0 0 0 697.6 759.466667z m-56.405333-80.746667a24.209067 24.209067 0 0 0-24.209067-24.209067H407.0144a24.209067 24.209067 0 1 0 0 48.418134h209.9712a24.209067 24.209067 0 0 0 24.209067-24.209067z m222.050133-185.7152a24.209067 24.209067 0 0 0-24.209067-24.209067H180.928a24.209067 24.209067 0 1 0 0 48.418134H839.04a24.209067 24.209067 0 0 0 24.209067-24.209067z m-109.009067-209.937067a24.209067 24.209067 0 0 0-24.209066-24.209066H293.973333a24.209067 24.209067 0 1 0 0 48.418133h436.053334a24.209067 24.209067 0 0 0 24.209066-24.209067z"  horiz-adv-x="1024" />


    <glyph glyph-name="paike" unicode="&#59005;" d="M876.08888889 480.47870066H144.74596466v-440.99417088c0-15.21891555 12.33047666-24.42793757 27.54453845-24.42793757H553.74885888c14.47617422 0 26.2144-13.03923712 26.2144-29.12711111s-11.73822578-29.12711111-26.2144-29.12711111H172.29050311C126.64832-43.19763001000001 89.65688889-6.177071790000014 89.65688889 39.48452978V664.20280889c0 45.66645533 36.99143111 82.68701355 82.63361422 82.68701354h36.72443222a27.55424711 27.55424711 0 0 0 27.54453845-27.56395576 27.55424711 27.55424711 0 0 0-27.54453845-27.55910201h-36.72443222a27.55424711 27.55424711 0 0 1-27.54453845-27.56395577v-128.63503132H876.08888889V664.20280889c0 15.22377045-9.16533134 27.56395577-24.379392 27.56395577h-27.54453846a27.55424711 27.55424711 0 0 0-27.54453731 27.55910201 27.55424711 27.55424711 0 0 0 27.54453731 27.56395576h27.54453846c45.63732821 0 82.63361422-37.02055822 82.63361422-82.68701354V345.16385223h-0.07767268c-1.10683022-13.57323378-13.68974222-24.27259221-29.04943843-24.27259335s-27.94260821 10.69935843-29.04943843 24.27259335H876.08888889v135.31484843zM788.70755555 102.43792555000005v-98.6583791a27.55910201 27.55910201 0 0 0-27.559102-27.559102h-3.13601821a27.55910201 27.55910201 0 0 0-27.55910201 27.559102V102.43792555000005h-98.65838023a27.55910201 27.55910201 0 0 0-27.55910087 27.559102v3.13601935a27.55910201 27.55910201 0 0 0 27.55910087 27.55910087H730.45333333v98.65838023a27.55910201 27.55910201 0 0 0 27.55910201 27.55910201h3.13601821a27.55910201 27.55910201 0 0 0 27.559102-27.55910201V160.69214777000002h98.65838024a27.55910201 27.55910201 0 0 0 27.55910087-27.55910087v-3.13601935a27.55910201 27.55910201 0 0 0-27.55910087-27.559102H788.70755555zM300.82844445 811.19763001a27.54453845 27.54453845 0 0 0 27.54453845-27.54453846v-114.87247132a27.54453845 27.54453845 0 1 0-55.08907691 0V783.65309155A27.54453845 27.54453845 0 0 0 300.82844445 811.19763001z m422.3431111 0a27.54453845 27.54453845 0 0 0 27.54453846-27.54453846v-114.87247132a27.54453845 27.54453845 0 1 0-55.08907691 0V783.65309155A27.54453845 27.54453845 0 0 0 723.17155555 811.19763001z m-64.17673443-91.87176334a27.54453845 27.54453845 0 0 0-27.54453845-27.54453846H392.54971733a27.54453845 27.54453845 0 1 0 0 55.08907691h238.90056534a27.54453845 27.54453845 0 0 0 27.54453845-27.54453845z"  horiz-adv-x="1024" />


    <glyph glyph-name="folder" unicode="&#59014;" d="M550.4 618.666667h260.266667c56.554667 0 102.4-45.845333 102.4-102.4v-375.466667c0-56.554667-45.845333-102.4-102.4-102.4H213.333333c-56.554667 0-102.4 45.845333-102.4 102.4V661.333333c0 37.704533 30.562133 68.266667 68.266667 68.266667h264.789333a68.266667 68.266667 0 0 0 58.1376-32.4864L550.4 618.666667z m259.84-528.695467c28.279467 0 51.2 22.9248 51.2 51.2v375.466667c0 28.2752-22.920533 51.2-51.2 51.2H162.56v-426.666667c0-28.2752 22.9248-51.2 51.2-51.2h596.48zM465.7152 669.802667A17.066667 17.066667 0 0 1 450.897067 678.4H179.2a17.066667 17.066667 0 0 1-17.066667-17.066667v-41.634133L494.933333 618.666667l-29.218133 51.136z"  horiz-adv-x="1024" />


    <glyph glyph-name="work" unicode="&#59016;" d="M213.333333 793.6h597.333334c37.704533 0 68.266667-30.562133 68.266666-68.266667v-682.666666c0-37.704533-30.562133-68.266667-68.266666-68.266667H213.333333c-37.704533 0-68.266667 30.562133-68.266666 68.266667V725.333333c0 37.704533 30.562133 68.266667 68.266666 68.266667z m0-51.2a17.066667 17.066667 0 0 1-17.066666-17.066667v-682.666666a17.066667 17.066667 0 0 1 17.066666-17.066667h597.333334a17.066667 17.066667 0 0 1 17.066666 17.066667V725.333333a17.066667 17.066667 0 0 1-17.066666 17.066667H213.333333z m85.333334-123.733333h290.133333a25.6 25.6 0 0 0 0-51.2H298.666667a25.6 25.6 0 1 0 0 51.2z m0-136.533334h153.6a25.6 25.6 0 0 0 0-51.2H298.666667a25.6 25.6 0 0 0 0 51.2z"  horiz-adv-x="1024" />


    <glyph glyph-name="correct" unicode="&#59017;" d="M827.733333 196.26666699999998a25.6 25.6 0 0 0 51.2 0v-153.6c0-37.704533-30.562133-68.266667-68.266666-68.266667H213.333333c-37.704533 0-68.266667 30.562133-68.266666 68.266667V725.333333c0 37.704533 30.562133 68.266667 68.266666 68.266667h597.333334c37.704533 0 68.266667-30.562133 68.266666-68.266667v-375.466666a25.6 25.6 0 0 0-51.2 0V725.333333a17.066667 17.066667 0 0 1-17.066666 17.066667H213.333333a17.066667 17.066667 0 0 1-17.066666-17.066667v-682.666666a17.066667 17.066667 0 0 1 17.066666-17.066667h597.333334a17.066667 17.066667 0 0 1 17.066666 17.066667v153.6z m-355.421866 41.527466l-108.608 108.612267a25.6 25.6 0 1 0 36.202666 36.202667l90.5088-90.5088 187.050667 187.050666a25.6 25.6 0 1 0 36.206933-36.202666l-205.154133-205.154134a25.6 25.6 0 0 0-36.206933 0z"  horiz-adv-x="1024" />


    <glyph glyph-name="file" unicode="&#59020;" d="M889.412267 794.9056c-8.785067 9.6384-21.960533 9.6384-30.7456 0L628.078933 546.730667a24.8832 24.8832 0 0 1 0-33.732267c4.394667-4.821333 10.978133-7.227733 15.3728-7.227733 6.587733 0 10.978133 2.410667 15.3728 7.227733L889.412267 761.173333a24.8832 24.8832 0 0 1 0 33.732267z m-116.394667-265.0368v-481.877333c0-7.232-6.587733-14.464-13.175467-14.464H206.429867c-6.587733-2.4064-13.175467 4.821333-13.175467 12.049066V691.3024c0 7.227733 6.587733 14.455467 13.175467 14.455467h423.8464c13.175467 0 21.960533 9.6384 21.960533 24.093866 0 14.455467-8.789333 24.093867-21.960533 24.093867H206.429867C175.684267 753.9456 149.333333 725.0304 149.333333 691.3024v-645.725867C149.333333 11.844266999999945 175.684267-17.066667000000052 206.429867-17.066667000000052h553.412266c32.938667 0 57.1008 28.910933 57.1008 62.6432V527.4624c0 14.455467-8.789333 26.500267-21.960533 26.500267-13.179733 0-21.9648-9.634133-21.9648-24.093867zM551.214933 479.274667h-256.938666c-13.179733 0-21.960533-9.634133-21.960534-24.093867 0-14.455467 8.7808-24.093867 21.960534-24.093867h254.7456c13.175467 0 21.960533 9.642667 21.960533 24.093867 0 14.459733-8.789333 24.093867-19.767467 24.093867z m-278.8992-255.394134c0-14.459733 8.7808-24.093867 21.960534-24.093866h377.728c13.1712 0 21.956267 9.634133 21.956266 24.093866 0 14.455467-8.785067 24.093867-21.960533 24.093867H294.272c-10.978133 0-21.956267-9.642667-21.956267-24.093867z"  horiz-adv-x="1024" />


    <glyph glyph-name="times" unicode="&#59009;" d="M785.546573 114.45264599999996c-35.593048-35.093146-76.984964-62.787737-123.275923-82.183948-47.890646-20.196055-98.780707-30.694005-151.470416-31.193908h-4.099199c-53.289592 0-104.579574 10.297989-152.770162 30.594025-46.49092 19.596173-87.882835 47.690685-123.075962 83.383714-70.286272 71.386057-108.278852 166.667448-106.679164 267.947666 0.799844 52.089826 11.497754 102.280023 31.893771 149.570787 19.696153 45.791056 47.590705 86.78305 82.883811 121.976177 72.585823 72.285882 169.466901 112.17809 272.446788 112.17809 52.389768 0 103.179848-10.198008 150.970514-30.194103 46.190978-19.296231 87.482913-46.990822 123.075961-82.183948 35.593048-35.193126 63.4876-76.08514 82.883812-121.676235 20.096075-47.090803 30.394064-97.181019 30.394064-148.770943 0-101.780121-40.19215-197.461433-113.177895-269.447374M511.400117 826.713533c-246.951767 0-443.413396-198.261277-447.112673-442.813513C60.488186 136.64831100000004 259.649287-58.81351299999994 506.701035-58.81351299999994h4.699082c246.951767 2.499512 447.212654 198.161297 447.212654 442.813513 0.09998 244.452255-200.260887 442.713533-447.212654 442.713533M736.656122 378.001172H511.200156V605.456747c0 16.596758-13.397383 29.994142-29.994142 29.994141s-29.994142-13.397383-29.994141-29.994141V348.10700999999995c0-16.596758 13.397383-29.994142 29.994141-29.994141h255.350127c16.596758 0 29.994142 13.397383 29.994142 29.994141 0 16.496778-13.397383 29.894161-29.894161 29.894162"  horiz-adv-x="1024" />


    <glyph glyph-name="problem" unicode="&#59010;" d="M509.7 831.3C263 831.3 62.8 631.1 62.8 384.4S263-62.5 509.7-62.5s446.9 200.2 446.9 446.9c-0.1 246.7-201.2 446.9-446.9 446.9z m0-837.9c-216 0-391 175-391 391s175 391 391 391 391-175 391-391-176-391-391-391z m0 0M465.9 134c0-15.6 8.3-30.1 21.9-37.9 13.5-7.8 30.2-7.8 43.8 0 13.5 7.8 21.9 22.3 21.9 37.9 0 15.6-8.3 30.1-21.9 37.9-13.5 7.8-30.2 7.8-43.8 0-13.5-7.9-21.9-22.3-21.9-37.9z m0 0M511.5 701.9c-53.1 0-103.3-20.5-141.5-58.7s-58.7-87.5-58.7-141.5c0-15.8 12.1-27.9 27.9-27.9 15.8 0 27.9 12.1 27.9 27.9 0 38.2 14.9 74.5 41.9 101.5s63.3 41.9 101.5 41.9c79.1 0 144.3-64.2 144.3-144.3 0-61.4-39.1-116.4-97.7-135.9-0.9 0-1.9-0.9-2.8-0.9-42.8-16.8-65.2-70.8-65.2-116.4 0-15.8 12.1-27.9 27.9-27.9 15.8 0 27.9 12.1 27.9 27.9 0 27.9 14.9 59.6 30.7 64.2 1.9 0.9 2.8 0.9 4.7 1.9 78.2 28.9 129.4 103.3 129.4 187.1 2 111.7-88.3 201.1-198.2 201.1z m0 0"  horiz-adv-x="1024" />


    <glyph glyph-name="system" unicode="&#59012;" d="M454.7 132.60000000000002v-68.9h56.6v68.9h36.8c16 0 28.3 12.3 28.3 28.3s-12.3 28.3-28.3 28.3H205.5c-47.2 0-84.9 37.7-84.9 84.9V619.5c0 47.2 37.7 84.9 84.9 84.9h556.7c44.3 0 81.1-34 84.9-78.3v-25.5c0-16 12.3-28.3 28.3-28.3s28.3 12.3 28.3 28.3v30.2C897.2 703.5 835.9 761 762.3 761H205.5C127.2 761 64 697.8 64 619.5v-345.3c0-78.3 63.2-141.5 141.5-141.5h249.2z m283-68.9H228.2c-16 0-28.3-12.3-28.3-28.3s12.3-28.3 28.3-28.3h509.5c16 0 28.3 12.3 28.3 28.3 0 16.1-12.2 28.3-28.3 28.3z m0 0M946.3 422.3L901 433.6c-0.9 1.9-1.9 2.8-1.9 4.7l23.6 39.6c4.7 7.6 3.8 17-2.8 22.6l-50 51c-6.6 6.6-16 7.6-23.6 2.8l-40.6-25.5-8.5 38.7c-1.9 8.5-9.4 14.2-17.9 14.2h-70.8c-8.5 0-16-5.7-17.9-14.2l-8.5-36.8-42.5 26.4c-9.4 3.8-18.9 1.9-25.5-3.8l-51-51c-6.6-6.6-7.5-16-2.8-23.6l26.4-43.4-55.7-13.2c-8.5-1.9-14.2-9.4-14.2-17.9v-71.7c0-8.5 5.7-16 14.2-17.9l54.7-13.2-25.5-42.5c-4.7-7.6-3.8-17 2.8-23.6l50-50c6.6-6.6 16-7.6 23.6-2.8l37.7 22.6 12.3-51.9c1.9-8.5 9.4-14.2 17.9-14.2h71.7c8.5 0 16 5.7 17.9 14.2l12.3 52.8 38.7-23.6c7.5-4.7 17-3.8 23.6 2.8l49.1 50c5.7 6.6 7.5 16 2.8 22.6L898 295.5c0.9 2.8 1.9 5.7 3.8 7.6l43.4 10.4c8.5 1.9 14.2 9.4 14.2 17.9v71.7c1 9.8-4.7 17.3-13.1 19.2z m-23.6-75.5l-38.7-9.4c-6.6-1.9-11.3-6.6-13.2-12.3-2.8-7.5-5.7-15.1-9.4-21.7-2.8-5.7-2.8-13.2 0.9-18.9l20.8-34-28.3-29.3-35.9 21.8c-5.7 3.8-12.3 3.8-17.9 0.9-4.7-1.9-9.4-3.8-13.2-5.7-5.7-1.9-10.4-7.5-12.3-13.2l-13.2-49h-42.5l-12.3 51.9c-1.9 5.7-5.7 11.3-11.3 13.2-3.8 0.9-7.6 2.8-10.4 4.7-5.7 2.8-12.3 2.8-17.9-0.9l-37.7-22.6-29.3 29.3 22.6 37.7c3.8 5.7 3.8 12.3 0.9 17.9-2.8 4.7-4.7 10.4-6.6 15.1-1.9 5.7-7.6 10.4-13.2 12.3l-50 12.3v42.5l51.9 12.3c5.7 1.9 11.3 5.7 13.2 11.3 1.9 4.7 3.8 9.4 6.6 14.2 2.8 5.7 2.8 13.2-0.9 18.9l-24.5 40.6 29.3 29.3 44.3-27.4c5.7-2.8 11.3-3.8 17-0.9l8.5 2.8h0.9c5.7 1.9 10.4 7.6 12.3 13.2l9.4 39.6h39.6l8.5-38.7c1.9-6.6 6.6-11.3 12.3-14.2 3.8-0.9 8.5-2.8 11.3-4.7 5.7-2.8 12.3-1.9 17 0.9L851 511l29.3-29.3-21.7-35.9c-3.8-5.7-3.8-13.2 0-18.9 3.8-5.7 6.6-12.3 8.5-18.9 1.9-5.7 7.6-10.4 13.2-12.3l40.6-9.4v-39.6h1.8z m0 0M738.7 454.4c-51.9 0-94.4-42.5-94.4-94.4 0-51.9 42.5-94.4 94.4-94.4 51.9 0 94.4 42.5 94.4 94.4-0.1 51.9-41.6 94.4-94.4 94.4z m0-151c-31.1 0-56.6 25.5-56.6 56.6s25.5 56.6 56.6 56.6 56.6-25.5 56.6-56.6c0.9-31.1-24.6-56.6-56.6-56.6z m0 0"  horiz-adv-x="1024" />


    <glyph glyph-name="knowledge" unicode="&#59013;" d="M851.6 151.60000000000002c6.5 0 13 2.8 17.7 6.5 9.3 4.7 14.9 14 14.9 24.2V710.2c0 67-54 121-121 121H260.5c-67 0-121-54-121-121v-651.6c0-67 54-121 121-121h595.8c15.8 0 27.9 12.1 27.9 27.9 0 15.8-12.1 27.9-27.9 27.9h-4.7c-43.8 0-79.1 35.4-79.1 79.1 0 43.8 35.3 79.1 79.1 79.1zM483.9 775.3v-277.4l-42.8 42.8c-5.6 6.5-13 11.2-22.3 11.2-8.4 0-16.8-3.7-21.4-10.2-4.7-4.7-22.3-23.3-43.8-43.7V775.3h130.3z m-39.1-262.5c-0.9 0-0.9 0 0 0-0.9 0-0.9 0 0 0zM260.5 775.3h37.2v-344.4c0-11.2 6.5-21.4 16.8-26.1 3.7-1.9 7.4-1.9 11.2-1.9 7.4 0 14 2.8 19.5 8.4l46.5 46.5c9.3 9.3 18.6 18.6 27 26.1 7.4-8.4 17.7-17.7 27-27l46.5-46.5c8.4-7.4 19.5-10.2 30.7-5.6 10.2 4.7 16.8 14.9 16.8 26.1V775.3h223.4c36.3 0 65.2-28.9 65.2-65.2v-502.7H260.5c-24.2 0-46.5-7.4-65.2-19.5V710.2c0 36.3 28.9 65.1 65.2 65.1z m0-781.9c-36.3 0-65.2 28.9-65.2 65.2v27.9c0 36.3 28.9 65.2 65.2 65.2h482.2c-16.8-22.3-26.1-49.3-26.1-79.1 0-29.8 9.3-56.8 26.1-79.1H260.5z m0 0"  horiz-adv-x="1024" />


    <glyph glyph-name="task" unicode="&#59018;" d="M765.3 765.8h-44.6c0 36.3-28.8 65.1-65.1 65.1H376.7c-36.3 0-65.1-28.8-65.1-65.1h-52.1c-34.4 0-66.9-13-91.1-37.2-23.2-24.2-37.2-56.7-37.2-91.1v-571.7c0-34.4 13.9-66.9 38.1-91.1 24.2-24.2 56.7-37.2 90.2-37.2h506.6c69.7 0.9 127.4 58.6 127.4 129.2V637.5c0.1 70.7-57.5 128.3-128.2 128.3z m-397.9 0c0 5.6 3.7 9.3 9.3 9.3h278.9c5.6 0 9.3-3.7 9.3-9.3v-93c0-5.6-3.7-9.3-9.3-9.3H376.7c-5.6 0-9.3 3.7-9.3 9.3v93z m470.4-699.1c0-40-32.5-72.5-72.5-72.5H259.6c-40 0-72.5 32.5-72.5 72.5V637.5c0 40 32.5 72.5 72.5 72.5h52.1v-37.2c0-36.3 28.8-65.1 65.1-65.1h278.9c36.3 0 65.1 28.8 65.1 65.1V710h43.7c40.9 0 72.5-32.5 72.5-72.5v-570.8h0.8z m0 0M673.3 477.6c-7.4 0-13.9-2.8-19.5-8.4L462.3 278.70000000000005l-84.6 84.6c-5.6 5.6-12.1 7.4-19.5 7.4s-13.9-2.8-19.5-7.4c-11.2-11.2-11.2-28.8-0.9-39l105-105c5.6-5.6 12.1-7.4 19.5-7.4s13.9 2.8 19.5 7.4l0.9 0.9 210.1 210.1c11.2 11.2 11.2 28.8 0 39-5.6 5.6-13 8.3-19.5 8.3z m0 0"  horiz-adv-x="1024" />


    <glyph glyph-name="refresh" unicode="&#59022;" d="M183.9 361.79999999999995c5.7 0 11.4 2.9 15.3 6.7l109.6 127.7c4.8 5.7 5.7 13.3 2.9 20-2.9 6.7-9.5 11.4-17.2 11.4H194.4c25.7 67.7 70.5 124.9 131.6 164.9 77.2 51.5 168.7 69.6 259.3 51.5 128.7-25.7 232.6-123.9 266-250.7 3.8-15.3 20-24.8 35.3-20 15.3 3.8 24.8 20 20 35.3-38.2 146.8-160.3 261.2-309.9 291.7-105.8 21-212.6 0-302.2-60.1-77.3-51.4-133.5-125.8-160.2-212.5H82.8c-7.6 0-14.3-3.8-17.2-10.5-2.9-6.7-1.9-14.3 1.9-20l101.1-128.7c3.8-3.8 9.6-6.7 15.3-6.7z m772.2-92.5L855 396.1c-3.8 4.8-8.6 6.7-14.3 7.6-5.7 0-11.4-1.9-15.3-6.7L715.8 269.29999999999995c-4.8-5.7-5.7-13.3-2.9-20 2.9-6.7 9.5-11.4 17.2-11.4h99.1c-60.1-155.4-225.9-248.8-394.7-213.5-127.7 26.7-228.8 122-263.1 247.9-3.8 15.3-20 23.8-35.3 20-15.3-3.8-23.8-20-20-35.3 40-146.8 157.3-257.4 307-288.8 27.6-5.7 55.3-8.6 82.9-8.6 172.5 0 329.8 111.5 384.2 278.4h50.5c7.6 0 14.3 3.8 17.2 10.5 2.9 6.5 2 15.1-1.8 20.8z m0 0"  horiz-adv-x="1024" />


    <glyph glyph-name="release" unicode="&#59024;" d="M832.1 764.7h-71.9c-15.9 0-28-12.1-28-28s12.1-28 28-28h71.9c40.1 0 71.9-28 71.9-61.6v-564.7c0-33.6-32.7-61.6-71.9-61.6H191.9c-39.2 0-71.9 28-71.9 61.6V647.1c0 33.6 32.7 61.6 71.9 61.6H274c15.9 0 28 12.1 28 28s-12.1 28-28 28h-82.1c-70 0-127.9-53.2-127.9-117.6v-564.7c0-64.4 57.9-117.6 127.9-117.6h640.3c70 0 127.9 53.2 127.9 117.6V647.1c-0.1 64.4-58 117.6-128 117.6z m0 0M293.6 535.1c11.2-10.3 28.9-9.3 39.2 1.9L484 700.3v-383.6c0-15.9 12.1-28 28-28s28 12.1 28 28V710.5l159.6-173.6c5.6-5.6 13.1-9.3 20.5-9.3 6.5 0 14 2.8 18.7 7.5 11.2 10.3 12.1 28 1.9 39.2L537.2 795.5c-10.3 11.2-30.8 11.2-41.1 0L292.7 574.3c-10.3-11.2-10.3-29 0.9-39.2z m41.1-336.9c-15.9 0-28-12.1-28-28s12.1-28 28-28h354.7c15.9 0 28 12.1 28 28s-12.1 28-28 28H334.7z m0 0"  horiz-adv-x="1024" />


    <glyph glyph-name="approval" unicode="&#59025;" d="M894.1 478.6c-16 0-28.3-12.3-28.3-28.3v-358.4c0-47.2-37.7-84.9-84.9-84.9H205.5c-47.2 0-84.9 37.7-84.9 84.9V591.8c0 47.2 37.7 84.9 84.9 84.9h360.3c16 0 28.3 12.3 28.3 28.3s-12.3 28.3-28.3 28.3H205.5C127.2 733.3 64 670.1 64 591.8v-499.9c0-78.3 63.2-141.5 141.5-141.5h575.4c78.3 0 141.5 63.2 141.5 141.5V450.3c0 15.1-12.3 28.3-28.3 28.3z m0 0M932.7 775.8l-15.1 15.1c-17.9 17.9-41.5 27.4-66 27.4s-48.1-9.4-66-27.4L513 519.2l-66-66c-45.3-45.3-33-143.4-31.1-154.7l2.8-20.8 20.8-2.8c4.7-0.9 22.6-3.8 46.2-3.8 34.9 0 81.1 5.7 108.5 33l338.6 338.6c17.9 17.9 27.4 41.5 27.4 66-0.1 25.6-9.5 49.1-27.5 67.1zM553.6 343.70000000000005c-15.1-15.1-54.7-17.9-84-16-0.9 29.2 0.9 68.9 17 84.9l23.6 23.6 67.9-67.9-24.5-24.6z m338.6 339.6L620.5 411.7l-67 67 271.7 271.7c14.1 14.1 38.7 14.1 51.9 0l15.1-15.1c15.1-14.3 15.1-37.8 0-52z m0 0"  horiz-adv-x="1024" />


    <glyph glyph-name="menu" unicode="&#59026;" d="M343.8 831.4H184.2C117.5 831.4 64 777.8 64 711.2v-160.6c0-65.7 53.5-119.2 120.2-119.2H464V711.2c0 66.6-53.5 120.2-120.2 120.2z m63.8-343.7H184.2c-34.7 0-63.8 28.2-63.8 63.8V711.2c0 34.7 28.2 63.8 63.8 63.8h160.6c34.7 0 63.8-28.2 63.8-63.8v-223.5h-1zM839.5 831.4H679c-66.7 0-120.2-53.5-120.2-120.2v-279.8h280.7c66.7 0 120.2 53.5 120.2 120.2V711.2c0 66.6-54.4 120.2-120.2 120.2z m63.9-279.8c0-34.7-28.2-63.8-63.8-63.8H615.1V711.2c0 34.7 28.2 63.8 63.8 63.8h160.5c34.7 0 63.8-28.2 63.8-63.8v-159.6zM64 218.29999999999995v-159.6c0-66.7 53.5-120.2 120.2-120.2h160.6c66.7 0 120.2 53.5 120.2 120.2V337.5H184.2C117.5 337.5 64 284 64 218.29999999999995z m343.6-160.6c0-34.7-28.2-63.8-63.8-63.8H184.2c-34.7 0-63.8 28.2-63.8 63.8V217.29999999999995c0 34.7 28.2 63.8 63.8 63.8h223.5v-223.4z m431.9 279.8H558.8v-279.8c0-66.7 53.5-120.2 120.2-120.2h160.5c66.7 0 120.2 53.5 120.2 120.2V217.29999999999995c0 66.7-54.4 120.2-120.2 120.2z m63.9-279.8c0-34.7-28.2-63.8-63.8-63.8H679c-34.7 0-63.8 28.2-63.8 63.8V281.20000000000005h224.4c34.7 0 63.8-28.2 63.8-63.8v-159.7z m0 0"  horiz-adv-x="1024" />


    <glyph glyph-name="smallclass" unicode="&#58886;" d="M215.04 23.039999999999964c-15.36 0-25.6 12.8-25.6 25.6v64c0 64 20.48 125.44 56.32 176.64 35.84 51.2 84.48 89.6 143.36 112.64l10.24 2.56-7.68 5.12c-46.08 35.84-71.68 89.6-71.68 145.92 0 102.4 84.48 186.88 186.88 186.88s186.88-84.48 186.88-186.88c0-56.32-25.6-110.08-71.68-145.92l-7.68-5.12 10.24-2.56c58.88-23.04 107.52-61.44 143.36-112.64 35.84-51.2 56.32-112.64 56.32-176.64v-64c0-15.36-12.8-25.6-25.6-25.6H215.04z m289.28 350.72C358.4 373.76 240.64 256 240.64 112.63999999999999v-38.4H768v38.4c0 143.36-117.76 261.12-263.68 261.12z m0 320c-74.24 0-135.68-58.88-135.68-133.12 0-74.24 61.44-133.12 135.68-133.12S640 486.4 640 560.64s-61.44 133.12-135.68 133.12zM87.04 117.75999999999999c-15.36 0-25.6 12.8-25.6 25.6v48.64c0 94.72 51.2 179.2 135.68 220.16l7.68 2.56-5.12 5.12c-25.6 28.16-40.96 64-40.96 102.4 0 84.48 69.12 151.04 151.04 153.6 0 0 0-2.56-2.56-2.56-12.8-17.92-23.04-35.84-30.72-56.32-40.96-15.36-69.12-51.2-69.12-94.72 0-40.96 23.04-76.8 58.88-92.16 10.24-5.12 17.92-12.8 17.92-23.04s-7.68-20.48-17.92-25.6l-2.56 2.56c-87.04-23.04-151.04-99.84-151.04-192v-23.04h30.72c-2.56-17.92-5.12-35.84-5.12-51.2h-51.2z m783.36 0c0 17.92-2.56 35.84-5.12 51.2H896v23.04c0 89.6-61.44 168.96-151.04 192l-5.12 2.56c-10.24 5.12-17.92 12.8-17.92 25.6 0 10.24 7.68 20.48 17.92 23.04 35.84 15.36 58.88 53.76 58.88 92.16 0 43.52-28.16 81.92-69.12 94.72-7.68 20.48-17.92 38.4-30.72 56.32 0 0 0 2.56-2.56 2.56 84.48-2.56 151.04-69.12 151.04-153.6 0-38.4-15.36-74.24-40.96-102.4l-5.12-5.12 7.68-2.56c84.48-43.52 135.68-128 135.68-220.16v-48.64c0-15.36-12.8-25.6-25.6-25.6H870.4z m0 0"  horiz-adv-x="1024" />


    <glyph glyph-name="statistics" unicode="&#58895;" d="M488.96-64c74.24 0 145.92 17.92 209.92 53.76 10.24 5.12 17.92 15.36 17.92 28.16 0 12.8-5.12 23.04-15.36 30.72-10.24 5.12-23.04 5.12-33.28 0-53.76-30.72-115.2-46.08-179.2-46.08-202.24 0-366.08 163.84-366.08 366.08 0 192 145.92 348.16 332.8 366.08v-366.08c0-17.92 15.36-33.28 33.28-33.28h401.92c17.92 0 33.28 15.36 33.28 33.28 0 238.08-194.56 432.64-432.64 432.64-238.08 0-435.2-194.56-435.2-432.64-2.56-238.08 192-432.64 432.64-432.64z m366.08 465.92h-332.8v332.8c176.64-15.36 314.88-156.16 332.8-332.8z m0 0M819.2 207.36c-7.68-17.92-17.92-35.84-30.72-51.2-10.24-15.36-7.68-35.84 7.68-46.08 15.36-10.24 35.84-7.68 46.08 7.68 12.8 20.48 25.6 38.4 35.84 61.44 7.68 15.36 2.56 35.84-15.36 43.52-15.36 7.68-35.84 2.56-43.52-15.36z m0 0"  horiz-adv-x="1024" />


    <glyph glyph-name="setup" unicode="&#58894;" d="M942.08 376.32000000000005c0 33.28-2.56 61.44-10.24 81.92 2.56 20.48-10.24 35.84-30.72 40.96h-2.56c-35.84 7.68-61.44 25.6-81.92 61.44-17.92 30.72-23.04 66.56-10.24 99.84 7.68 15.36 2.56 35.84-12.8 48.64-38.4 35.84-87.04 64-140.8 81.92-15.36 7.68-35.84 2.56-48.64-12.8-23.04-28.16-56.32-43.52-94.72-43.52-33.28 0-66.56 15.36-94.72 43.52-17.92 17.92-35.84 15.36-48.64 12.8-56.32-20.48-99.84-46.08-135.68-79.36-17.92-10.24-23.04-30.72-15.36-46.08 10.24-38.4 7.68-74.24-10.24-104.96-15.36-30.72-46.08-51.2-81.92-61.44-2.56 0-5.12 0-5.12-2.56-12.8-7.68-23.04-17.92-25.6-30.72v-2.56c-5.12-28.16-10.24-53.76-10.24-84.48 0-33.28 2.56-61.44 10.24-81.92-2.56-15.36 5.12-30.72 28.16-40.96h2.56c35.84-7.68 61.44-25.6 81.92-61.44 17.92-30.72 23.04-66.56 10.24-99.84-7.68-15.36-2.56-35.84 12.8-48.64 35.84-33.28 84.48-64 140.8-84.48h2.56c2.56 0 2.56-2.56 5.12-2.56h5.12c12.8 0 25.6 5.12 35.84 15.36 23.04 28.16 56.32 43.52 94.72 43.52 33.28 0 66.56-15.36 94.72-43.52 10.24-10.24 20.48-15.36 33.28-15.36 5.12 0 12.8 0 17.92 2.56 58.88 23.04 99.84 48.64 138.24 81.92 15.36 10.24 23.04 30.72 15.36 46.08-10.24 38.4-7.68 74.24 10.24 104.96 15.36 30.72 46.08 51.2 81.92 61.44 2.56 0 5.12 0 5.12 2.56 12.8 7.68 23.04 17.92 25.6 30.72v2.56c5.12 28.16 7.68 56.32 7.68 84.48zM140.8 450.56c48.64 12.8 89.6 43.52 112.64 84.48 23.04 43.52 30.72 92.16 17.92 140.8 33.28 28.16 71.68 51.2 117.76 69.12 38.4-35.84 81.92-56.32 130.56-56.32 51.2 0 99.84 20.48 130.56 56.32 43.52-15.36 81.92-38.4 115.2-69.12-12.8-51.2-7.68-99.84 17.92-140.8 23.04-43.52 61.44-74.24 110.08-87.04 5.12-20.48 7.68-46.08 7.68-71.68 0-20.48-2.56-40.96-7.68-69.12-51.2-15.36-89.6-46.08-110.08-87.04-23.04-43.52-30.72-92.16-17.92-140.8-33.28-28.16-71.68-51.2-117.76-69.12-38.4 35.84-84.48 53.76-130.56 53.76-51.2 0-97.28-20.48-130.56-56.32-43.52 15.36-81.92 38.4-115.2 69.12 12.8 51.2 7.68 99.84-17.92 140.8-23.04 43.52-61.44 74.24-110.08 87.04-5.12 20.48-7.68 48.64-7.68 71.68-2.56 25.6 0 46.08 5.12 74.24zM670.72 432.64c-5.12 12.8-17.92 20.48-30.72 17.92-12.8-5.12-20.48-20.48-15.36-33.28 7.68-20.48 7.68-46.08 0-74.24-10.24-28.16-30.72-51.2-56.32-66.56-28.16-12.8-58.88-15.36-87.04-5.12-28.16 10.24-51.2 30.72-66.56 56.32-12.8 28.16-15.36 58.88-5.12 87.04 10.24 28.16 30.72 51.2 56.32 66.56 28.16 12.8 58.88 15.36 87.04 5.12 12.8-5.12 28.16 2.56 33.28 15.36 5.12 12.8-2.56 28.16-15.36 33.28-40.96 15.36-87.04 12.8-128-7.68s-71.68-53.76-84.48-94.72c-15.36-40.96-12.8-87.04 7.68-128s53.76-71.68 94.72-84.48c15.36-5.12 35.84-10.24 53.76-10.24 71.68 0 133.12 46.08 156.16 112.64 10.24 38.4 10.24 74.24 0 110.08z"  horiz-adv-x="1024" />


    <glyph glyph-name="class" unicode="&#58898;" d="M817.664 740.864H691.2v24.064c0 14.848-11.776 26.624-26.624 26.624-14.848 0-26.624-11.776-26.624-26.624v-24.064h-252.416v24.064c0 14.848-11.776 26.624-26.624 26.624s-26.624-11.776-26.624-26.624v-24.064h-126.464c-56.832 0-103.424-46.592-103.424-103.424V76.28800000000001c0-56.832 46.592-103.424 103.424-103.424h611.84c56.832 0 103.424 46.592 103.424 103.424V637.44c0 56.832-46.592 103.424-103.424 103.424z m-459.264-104.96c14.848 0 26.624 11.776 26.624 26.624v24.064h252.416v-24.064c0-14.848 11.776-26.624 26.624-26.624 14.848 0 26.624 11.776 26.624 26.624v24.064h126.464c27.648 0 49.664-22.528 49.664-49.664v-75.264h-711.68v75.264c0 27.648 22.528 49.664 49.664 49.664h126.464v-24.064c0.512-14.336 12.8-26.624 27.136-26.624zM867.328 76.28800000000001c0-27.648-22.528-49.664-49.664-49.664h-611.84c-27.648 0-49.664 22.528-49.664 49.664v432.128h711.68V76.28800000000001zM358.4 266.24c-7.168 0-14.336-3.072-19.456-8.192l-40.448-41.472-23.552 24.064c-5.12 5.12-11.776 7.68-18.944 7.68-6.656 0-13.312-2.56-18.432-7.168-10.752-10.24-11.264-27.136-1.024-37.888l42.496-43.52 0.512-0.512c5.12-5.12 11.776-7.68 18.432-7.68 7.168 0 14.336 3.072 19.456 8.192l59.392 61.44c5.12 5.12 7.68 11.776 7.68 18.944 0 7.168-3.072 13.824-8.192 18.944-4.096 4.608-10.752 7.168-17.92 7.168zM280.064 312.832l0.512-0.512c5.12-5.12 11.776-7.68 18.432-7.68 7.168 0 14.336 3.072 19.456 8.192l59.392 61.44c10.24 10.752 10.24 27.648-0.512 37.888-5.12 5.12-11.776 7.68-18.944 7.68-7.168 0-14.336-3.072-19.456-8.192l-40.448-41.472-23.552 24.064-0.512 0.512c-5.12 5.12-11.776 7.68-18.944 7.68-7.168 0-13.824-2.56-18.944-7.68-10.24-10.24-10.752-27.648 0-37.888l43.52-44.032zM460.8 330.24h306.176c14.848 0 26.624 11.776 26.624 26.624 0 14.848-11.776 26.624-26.624 26.624H460.8c-14.848 0-26.624-11.776-26.624-26.624-0.512-14.848 11.776-26.624 26.624-26.624zM460.8 177.15200000000004h306.176c14.848 0 26.624 11.776 26.624 26.624s-11.776 26.624-26.624 26.624H460.8c-14.848 0-26.624-11.776-26.624-26.624s11.776-26.624 26.624-26.624z"  horiz-adv-x="1024" />


    <glyph glyph-name="order" unicode="&#59043;" d="M341.8624 742.4C346.0608 776.0768 374.784 802.133333 409.6 802.133333h204.8c34.816 0 63.5392-26.056533 67.7376-59.733333H827.733333c37.704533 0 68.266667-30.562133 68.266667-68.266667v-640c0-37.704533-30.562133-68.266667-68.266667-68.266666H196.266667c-37.704533 0-68.266667 30.562133-68.266667 68.266666V674.133333c0 37.704533 30.562133 68.266667 68.266667 68.266667h145.595733z m0-51.2H196.266667a17.066667 17.066667 0 0 1-17.066667-17.066667v-640a17.066667 17.066667 0 0 1 17.066667-17.066666h631.466666a17.066667 17.066667 0 0 1 17.066667 17.066666V674.133333a17.066667 17.066667 0 0 1-17.066667 17.066667h-145.595733c-4.1984-33.6768-32.925867-59.733333-67.7376-59.733333H409.6c-34.816 0-63.5392 26.056533-67.7376 59.733333zM409.6 750.933333a17.066667 17.066667 0 0 1-17.066667-17.066666v-34.133334a17.066667 17.066667 0 0 1 17.066667-17.066666h204.8a17.066667 17.066667 0 0 1 17.066667 17.066666v34.133334a17.066667 17.066667 0 0 1-17.066667 17.066666H409.6z m52.8896-463.095466l186.794667 186.794666a25.6 25.6 0 1 0 36.206933-36.202666l-201.847467-201.8432a25.770667 25.770667 0 0 0-2.794666-3.310934 25.514667 25.514667 0 0 0-8.546134-5.653333 24.9472 24.9472 0 0 0-28.16 5.661867 26.5088 26.5088 0 0 0-2.3424 2.833066l-105.770666 105.770667a25.6 25.6 0 1 0 36.202666 36.202667l90.257067-90.2528z"  horiz-adv-x="1024" />


    <glyph glyph-name="coupon" unicode="&#59044;" d="M195.281067 594.325333l420.5312 0.298667-367.428267 89.902933a33.480533 33.480533 0 0 1-39.466667-25.898666l-13.636266-64.302934z m-49.4336-10.282666a25.4848 25.4848 0 0 0-1.723734 15.872l14.698667 69.316266a84.667733 84.667733 0 0 0 100.5824 65.297067l0.7296-0.1664L830.613333 594.773333l10.299734 0.008534a84.612267 84.612267 0 0 0 85.248-85.0688l-0.055467-70.826667a25.6 25.6 0 0 0-17.053867-24.1152c-49.8304-17.646933-83.170133-64.776533-83.208533-117.610667a124.381867 124.381867 0 0 1 82.986667-117.4272 25.6 25.6 0 0 0 14.378666-12.6976l0.708267-1.416533a25.6 25.6 0 0 0 2.696533-11.460267l-0.0512-70.805333a84.778667 84.778667 0 0 0-84.804266-84.782933l-655.287467 0.597333a84.612267 84.612267 0 0 0-85.248 85.0688l0.055467 70.826667a25.6 25.6 0 0 0 17.053866 24.1152c49.8304 17.646933 83.170133 64.776533 83.208534 117.610666a124.381867 124.381867 0 0 1-82.986667 117.4272 25.6 25.6 0 0 0-17.0752 24.157867l0.046933 70.656a84.778667 84.778667 0 0 0 44.322134 75.008z m628.795733-286.848c0.046933 68.309333 39.560533 129.8432 100.2752 158.784l0.042667 53.943466a33.412267 33.412267 0 0 1-9.783467 23.880534 33.518933 33.518933 0 0 1-24.055467 9.7792l-654.613333-0.4608a33.578667 33.578667 0 0 1-23.940267-9.8432 33.685333 33.685333 0 0 1-9.8432-24.1152l-0.0384-53.725867a175.6032 175.6032 0 0 0 100.053334-158.6816c-0.046933-68.309333-39.560533-129.8432-100.2752-158.784l-0.042667-53.943467a33.412267 33.412267 0 0 1 9.783467-23.880533c6.3232-6.3232 14.9248-9.847467 24.098133-9.7792l655.479467-0.597333a33.578667 33.578667 0 0 1 33.578666 33.6l0.042667 54.8096a175.598933 175.598933 0 0 0-100.7616 159.018666z m-416.725333 108.330666h320.964266a25.796267 25.796267 0 1 0 0-51.584H357.917867a25.796267 25.796267 0 0 0 0 51.584z m0-166.4h320.964266a25.796267 25.796267 0 1 0 0-51.584H357.917867a25.796267 25.796267 0 1 0 0 51.584z"  horiz-adv-x="1024" />


    <glyph glyph-name="student" unicode="&#58880;" d="M850.679598 20.51661100000001c-77.853574 71.428367-173.252768 103.052488-173.252768 103.052488h-11.903541c-48.002169-31.218318-102.080697-52.209701-142.329902-52.209701s-94.331293 21.002061-142.329902 52.209701h-11.903542s-95.399194-31.620561-173.252768-103.052488c-117.696976-107.986192-135.267514-142.564841-135.267514-142.56484l462.757285-5.951771 462.757286 5.951771s-17.574098 34.578648-135.274634 142.56484zM1039.424056 671.9364820000001L538.816785 896 0 666.881749 251.56198 564.630187c0.53751-60.731554 3.531194-213.993207 19.912802-273.906037 23.315848-85.300406 167.689002-176.666493 251.718605-176.666493s228.399198 91.366086 251.715045 176.662933c16.189386 59.211574 19.304098 209.582775 19.895004 271.723959l102.949257 46.079946v-223.141563a26.697536 26.697536 0 0 1 53.395072 0v247.041197z m-333.185245-362.438625c-6.193828-22.667988-36.006076-54.462973-75.94203-80.986085-44.990687-29.883442-86.208123-43.257127-107.099835-43.257127s-62.109147 13.377245-107.099834 43.257127c-39.939513 26.530231-69.748202 58.318097-75.94559 80.986085-11.202286 40.982497-15.580682 151.23976-16.961834 226.039135l215.634216-87.649789 184.28419 82.484706c-1.487943-74.614273-5.919734-180.80995-16.872843-220.877612z"  horiz-adv-x="1039" />


    <glyph glyph-name="power" unicode="&#58881;" d="M768 479.086c43.886 43.885 43.886 109.714 0 153.6C724.114 676.5699999999999 650.971 676.5699999999999 607.086 640s-43.886-109.714 0-153.6S724.114 435.2 768 479.086z m-109.714 51.2c-14.629 14.628-14.629 36.571 0 51.2 14.628 14.628 36.571 14.628 51.2 0 14.628-14.629 14.628-36.572 0-51.2s-36.572-14.629-51.2 0z m-512-563.2c-14.629-14.629-36.572-14.629-51.2 0s-14.629 36.571 0 51.2l387.657 387.657-14.629 21.943C409.6 530.2860000000001 424.23 654.629 504.686 742.4c102.4 102.4 263.314 102.4 358.4 0s102.4-263.314 0-358.4c-80.457-87.771-204.8-102.4-307.2-43.886l-21.943 14.629-160.914-160.914 80.457-80.458c14.628-14.628 36.571-14.628 51.2 0 14.628 14.629 14.628 36.572 0 51.2l-21.943 29.258 65.828 65.828c124.343-58.514 277.943-36.571 373.029 65.829 131.657 131.657 131.657 336.457 0 468.114s-336.457 124.343-468.114 0C358.4 691.2 329.143 544.914 387.657 420.571L36.571 69.48599999999999c-43.885-43.886-43.885-109.715 0-153.6 43.886-43.886 109.715-43.886 153.6 0l80.458 80.457-51.2 43.886-73.143-73.143z m307.2 51.2L321.829 149.94299999999998l-51.2-58.514L402.286-40.23000000000002c14.628-14.628 36.571-14.628 51.2 0 14.628 21.943 14.628 43.886 0 58.515z"  horiz-adv-x="1024" />


    <glyph glyph-name="teachers" unicode="&#58891;" d="M725.594821 32.120947c-24.799399 33.599185-54.298683 63.09847-87.997866 87.697874-30.599258 22.399457-63.698455 40.199025-98.497612 53.19871 22.899445 13.099682 44.198928 29.199292 63.298465 48.398826 55.998642 55.998642 86.797895 130.396838 86.797895 209.594918 0 79.19808-30.799253 153.596276-86.797895 209.594918S472.00097 727.404088 392.80289 727.404088c-79.19808 0-153.596276-30.799253-209.594917-86.797895S96.410077 510.209355 96.410077 431.011275c0-79.19808 30.799253-153.596276 86.797896-209.594918 20.299508-20.299508 42.89896-37.199098 67.398365-50.598773-32.799205-12.699692-63.798453-29.799277-92.697752-50.798768-33.699183-24.699401-63.298465-54.198686-87.997866-87.697873-24.999394-33.999176-44.398923-71.498266-57.898596-111.297302-6.499842-19.39953 3.899905-40.39902 23.399432-46.898863 3.899905-1.299968 7.899808-1.999952 11.799714-1.999951 15.499624 0 29.899275 9.799762 35.099149 25.199389C127.709318 33.02092600000003 254.606241 124.21871399999998 397.802769 124.21871399999998s269.993453-91.197789 315.49235-226.894498c6.499842-19.39953 27.499333-29.899275 46.898863-23.399433s29.899275 27.499333 23.399432 46.898863c-13.59967 39.799035-32.9992 77.298126-57.998593 111.297301zM170.408283 430.911277c0 122.597027 99.79758 222.29461 222.29461 222.29461 122.597027 0 222.29461-99.79758 222.29461-222.29461 0-122.597027-99.79758-222.29461-222.29461-222.294609-122.49703-0.099998-222.29461 99.697583-222.29461 222.294609z m0 0M900.390582 896h-606.985282c-62.598482 0-113.597245-50.998763-113.597245-113.597245v-123.197013c0-20.899493 16.89959-37.799083 37.899081-37.799084 20.899493 0 37.899081 16.89959 37.899081 37.799084V782.402755c0 20.799496 16.999588 37.899081 37.799083 37.899081h606.885285c20.799496 0 37.899081-16.999588 37.899081-37.899081v-412.689994c0-20.799496-16.999588-37.799083-37.899081-37.799083H615.797483c-20.899493 0-37.799083-16.89959-37.799083-37.899081 0-20.899493 16.89959-37.799083 37.799083-37.799083h284.493102c62.598482 0 113.597245 50.998763 113.597245 113.597245V782.402755C1013.88783 845.001237 963.089062 896 900.390582 896z m0 0"  horiz-adv-x="1024" />


    <glyph glyph-name="payment" unicode="&#58897;" d="M891.6 18H131.2c-44.4 0-80.4 40.7-80.4 90.7V426.6c0 9.4 7.7 17.1 17.1 17.1S85 436 85 426.6v-317.9c0-31.2 20.7-56.5 46.2-56.5h760.4c25.5 0 46.2 25.3 46.2 56.5V607.8c0 31.2-20.7 56.5-46.2 56.5H131.2c-25.5 0-46.2-25.3-46.2-56.5v-83.2c0-9.4-7.7-17.1-17.1-17.1s-17.1 7.7-17.1 17.1v83.2c0 50 36.1 90.7 80.4 90.7h760.4c44.4 0 80.4-40.7 80.4-90.7v-499.1c0-50-36.1-90.7-80.4-90.7zM840.4 428.3h-658c-9.4 0-17.1 7.7-17.1 17.1s7.7 17.1 17.1 17.1h658c9.4 0 17.1-7.7 17.1-17.1s-7.7-17.1-17.1-17.1zM345.6 182H182.4c-9.4 0-17.1 7.7-17.1 17.1 0 9.4 7.7 17.1 17.1 17.1h163.3c9.4 0 17.1-7.7 17.1-17.1-0.1-9.4-7.7-17.1-17.2-17.1z"  horiz-adv-x="1024" />


    <glyph glyph-name="notice" unicode="&#58921;" d="M927.6 122.5l-0.6 1-84.4 108.3V487.3c0 34.3-5.8 67.9-17.2 99.9-11 30.9-27.1 59.7-47.7 85.4-38.1 47.6-90.4 82.7-148.4 99.7-7 50.1-50.1 88.8-102.1 88.8-52 0-95.1-38.7-102.1-88.8-58.1-17.1-110.4-52.1-148.4-99.7-20.6-25.8-36.6-54.5-47.7-85.4-11.4-32-17.2-65.6-17.2-99.9v-255.5l-84.4-108.3-0.6-1c-6.9-11.2-7.3-24.9-1.2-36.6 6-11.5 17.2-18.7 30-19.5 0.7 0 1.5-0.1 2.3-0.1h230.6c5.1-29.2 19.3-56 41-76.9 26.4-25.4 61.1-39.4 97.7-39.4s71.3 14 97.7 39.4c21.7 20.9 35.9 47.7 41 76.9h230.6c0.8 0 1.5 0 2.2 0.1 12.8 0.7 24.1 8 30.1 19.5 6.1 11.7 5.6 25.4-1.2 36.6zM527.1-9.899999999999977c-47.2 0-86.7 32-97.8 75.9h195.6c-11-43.8-50.6-75.9-97.8-75.9zM164.7 106.39999999999998l81 103.9 0.6 1c3.5 5.8 5.4 12.5 5.4 19.3V487.3c0 119.4 81 222.2 197 249.9l15.3 3.7V758c0 34.8 28.3 63.1 63.1 63.1s63.1-28.3 63.1-63.1v-17.1l15.3-3.7c116-27.7 197-130.5 197-249.9v-256.7c0-6.8 1.9-13.5 5.4-19.3l0.6-1 81-103.9H164.7z"  horiz-adv-x="1024" />


    <glyph glyph-name="zan" unicode="&#58930;" d="M511.1 4.3L134.5 380.9c-59.4 51.2-93.4 125.5-93.4 203.9 0 71.9 28 139.5 78.8 190.3 50.8 50.8 118.4 78.8 190.3 78.8 43 0 85.7-10.4 123.6-30 29.1-15.1 55.5-35.6 77.4-60.2 21.9 24.5 48.3 45.1 77.4 60.2 37.9 19.6 80.7 30 123.6 30 71.9 0 139.5-28 190.3-78.8 50.8-50.8 78.8-118.4 78.8-190.3 0-79.7-35-154.7-96-206L511.1 4.3zM310.3 813.9c-126.4 0-229.2-102.8-229.2-229.2 0-66.9 29.2-130.4 80-174l0.6-0.5 349.4-349.4 347.4 347.4 0.7 0.6c52.3 43.7 82.3 107.8 82.3 175.9 0 126.4-102.8 229.2-229.2 229.2-72.7 0-141.8-35-184.9-93.7l-16.1-22-16.1 22C452.1 778.9 383 813.9 310.3 813.9z"  horiz-adv-x="1024" />


    <glyph glyph-name="service" unicode="&#58899;" d="M537.677 323.223c129.603 0 234.583 106.004 234.583 236.665 0 130.66-104.98 236.664-234.583 236.664-129.604 0-234.584-106.004-234.584-236.664 0-130.66 104.98-236.665 234.584-236.665z m0 42.472c-106.054 0-192.111 86.897-192.111 194.193 0 107.295 86.057 194.192 192.11 194.192 106.054 0 192.111-86.897 192.111-194.192 0-107.296-86.057-194.193-192.11-194.193zM1001.664-128c0 272.569-218.908 493.613-489.048 493.613S23.567 144.569 23.567-128h42.472c0 249.204 199.986 451.14 446.577 451.14 246.59 0 446.576-201.936 446.576-451.14h42.472zM233.81 323.14c48.036 0 86.894 39.237 86.894 87.535 0 48.298-38.858 87.534-86.894 87.534-48.037 0-86.894-39.236-86.894-87.534 0-48.298 38.857-87.535 86.894-87.535z m0 42.473c-24.487 0-44.422 20.129-44.422 45.062 0 24.933 19.935 45.062 44.422 45.062s44.421-20.13 44.421-45.062c0-24.933-19.934-45.062-44.421-45.062zM830.543 375.713c7.892 3.074 25.878 8.036 39.195 12.873l2.74 0.994c10.822 3.92 22.43 8.067 34.038 12.176 6.966 2.466 12.381 4.37 15.466 5.448l14.224 4.976V626.99l-11.937 5.815c-2.215 1.079-6.125 2.998-11.16 5.497a1913.992 1913.992 0 0 0-24.583 12.404c-1.597 0.822-1.597 0.822-3.188 1.645-8.843 4.582-16.161 8.51-21.445 11.537-2.732 1.566-4.821 2.835-6.106 3.7 2.101-1.415 2.328-1.606 4.427-6.505C804.258 796.352 670.565 896 531.99 896 337.404 896 179.745 736.803 179.745 540.525c0-23.115 2.189-45.959 6.501-68.31l41.704 8.046c-3.802 19.703-5.733 39.853-5.733 60.264 0 172.913 138.737 313.003 309.773 313.003 120.542 0 239.578-88.724 291.184-209.171 4.108-9.588 7.272-11.4 42.627-29.717 1.645-0.851 1.645-0.851 3.292-1.7a1955.196 1955.196 0 0 1 25.137-12.683 1851.28 1851.28 0 0 1 11.44-5.635l-11.936 19.092v-186.465l14.225 20.046a4796.927 4796.927 0 0 1-15.614-5.5 5018.451 5018.451 0 0 1-34.334-12.282l-2.772-1.006c-13.599-4.94-24.855-9.125-33.113-12.342-4.84-1.885-8.638-3.432-11.414-4.663-1.809-0.802-3.278-1.507-4.589-2.237-1.372-0.77-1.372-0.77-3.727-2.485-4.48-2.106-14.325-9.831-7.017-23.547 7.308-13.716 30.88-9.19 35.164-7.52z"  horiz-adv-x="1024" />


    <glyph glyph-name="copy" unicode="&#58887;" d="M892.34887 113.95260299999995H722.695987V-7.400097999999957c0-70.643533-73.775215-120.569781-144.418748-120.569781H128.70011a128.880784 128.880784 0 0 0-128.519436 128.519437V450.126686C0.180674 520.770219 49.805798 594.846558 120.449331 594.846558h119.726635V764.559666c0 72.149149 59.200846 131.229546 131.53067 131.229546h520.642234c72.390048 0 131.590894-59.080397 131.590895-131.229546v-519.437741a131.771568 131.771568 0 0 0-131.590895-131.169322zM244.572367 213.26307699999995a126.170674 126.170674 0 0 0-2.589661 14.393695C241.862257 229.764635 240.898662 231.39070100000004 240.898662 233.498564v4.637299c-0.120449 2.348762-0.722696 4.637299-0.722696 6.986062V534.621892H120.449331c-38.543786 0-56.008939-45.95142-56.008939-84.495206v-449.577128c0-38.543786 25.715932-64.259718 64.259718-64.259719h449.577129c38.543786 0 84.194083 17.766276 84.194083 56.310063v120.449331H361.347994c-63.296124 0-107.741927 41.073222-116.775627 100.213844zM958.17443 764.559666c0 39.386931-26.318179 65.584661-65.82556 65.58466H371.706636c-39.447156 0-65.765335-26.19773-65.765335-65.58466v-519.437741c0-39.326707 26.318179-65.584661 65.765335-65.584661h520.642234c39.507381 0 65.82556 26.257954 65.82556 65.584661V764.559666z m-296.064456-410.852669h-60.104217V473.915429H481.797325V534.019646h120.208432V654.228078h60.104217V534.019646h120.208432v-60.104217h-120.208432v-120.208432z"  horiz-adv-x="1024" />


    <glyph glyph-name="delete" unicode="&#58888;" d="M853.333333-14.222221999999988c0-35.441778-21.447111-56.888889-56.888889-56.888889H227.555556c-35.384889 0-56.888889 21.447111-56.888889 56.888889V668.444444H113.664L113.777778-14.222221999999988c0-70.712889 71.338667-113.777778 142.051555-113.777778h512C838.542222-128 910.222222-84.935111 910.222222-14.222221999999988l-0.227555 682.666666H853.333333v-682.666666zM341.333333 554.666667v-455.111111h56.888889V554.666667H341.333333z m284.444445 0v-455.111111h56.888889V554.666667h-56.888889zM-0.056889 782.222222v-56.945778H1024V782.222222H-0.056889zM739.555556 896H284.444444v-56.888889h455.111112V896z"  horiz-adv-x="1024" />




  </font>
</defs>
</svg>
